<svg width="374" height="119" xmlns="http://www.w3.org/2000/svg"><g fill="none" fill-rule="evenodd"><path d="M197.445 32.45c8.01 0 13.545-6.03 13.545-14.265 0-8.28-5.535-14.265-13.545-14.265-7.965 0-13.455 5.985-13.455 14.265 0 8.235 5.49 14.265 13.455 14.265zm0-6.345c-3.735 0-6.165-3.15-6.165-7.92s2.43-7.92 6.165-7.92 6.255 3.15 6.255 7.92-2.52 7.92-6.255 7.92zm23.461 13.05V30.38c.945 1.08 2.925 2.07 4.995 2.07 5.85 0 9.045-4.815 9.045-10.575 0-5.805-3.195-10.575-9.045-10.575-2.07 0-4.05.99-4.995 2.07v-1.62h-7.065v27.405h7.065zm3.105-12.735c-1.35 0-2.565-.765-3.105-1.89v-5.355c.54-1.08 1.71-1.89 3.105-1.89 2.43 0 3.87 1.98 3.87 4.59s-1.44 4.545-3.87 4.545zm23.551 6.03c2.925 0 5.4-.63 6.975-1.8v-5.355c-2.025 1.215-3.69 1.62-5.85 1.62-2.61 0-4.59-.99-5.175-3.42h12.465v-2.07c0-6.03-3.195-10.125-9.495-10.125-5.58 0-9.81 4.365-9.81 10.71 0 6.525 4.41 10.44 10.89 10.44zm2.115-12.915h-6.075c.495-1.845 1.62-2.88 3.15-2.88 1.71 0 2.745 1.17 2.925 2.88zM265.65 32V19.76c.36-1.395 1.53-2.205 2.925-2.205 1.8 0 2.655 1.215 2.655 2.88V32h7.02V18.725c0-4.5-2.655-7.425-7.155-7.425-2.34 0-4.32.945-5.445 2.205V11.75h-7.065V32h7.065zM192.315 68V40.37h-7.245V68h7.245zm11.152 0V55.76c.36-1.395 1.53-2.205 2.925-2.205 1.8 0 2.655 1.215 2.655 2.88V68h7.02V54.725c0-4.5-2.655-7.425-7.155-7.425-2.34 0-4.32.945-5.445 2.205V47.75h-7.065V68h7.065zm23.365 0V55.76c.36-1.395 1.53-2.205 2.925-2.205 1.8 0 2.655 1.215 2.655 2.88V68h7.02V54.725c0-4.5-2.655-7.425-7.155-7.425-2.34 0-4.32.945-5.445 2.205V47.75h-7.065V68h7.065zm25.57.45c6.165 0 10.35-4.32 10.35-10.575 0-6.255-4.185-10.575-10.35-10.575-6.12 0-10.35 4.32-10.35 10.575 0 6.255 4.23 10.575 10.35 10.575zm0-5.85c-2.16 0-3.375-1.935-3.375-4.725 0-2.79 1.215-4.77 3.375-4.77 2.205 0 3.42 1.98 3.42 4.77 0 2.79-1.215 4.725-3.42 4.725zm23.5405 5.4l7.74-20.25h-6.93l-3.78 11.61-3.87-11.61h-7.2l7.695 20.25h6.345zm14.3155.36c2.16 0 4.095-.72 4.77-1.395V68h6.795V55.49c0-5.355-3.42-8.19-9.405-8.19-2.88 0-5.58.675-7.245 1.575v5.67c1.62-.945 3.6-1.44 5.535-1.44 2.88 0 4.32 1.125 4.32 2.7v.72c-.81-.585-2.7-1.125-4.41-1.125-4.365 0-7.785 2.52-7.785 6.435 0 4.275 3.42 6.525 7.425 6.525zm1.935-4.68c-1.395 0-2.79-.585-2.79-1.98 0-1.35 1.395-1.935 2.79-1.935 1.26 0 2.385.54 2.835 1.395v1.17c-.45.81-1.575 1.35-2.835 1.35zM314.19 68V53.24h3.96v-5.49h-3.96v-5.58h-7.02v5.58h-3.51v5.49h3.51V68h7.02zm9.5905-21.96c2.16 0 4.005-1.485 4.005-3.78 0-2.34-1.845-3.825-4.005-3.825s-4.005 1.485-4.005 3.825c0 2.295 1.845 3.78 4.005 3.78zm3.51 21.96V47.75h-7.065V68h7.065zm13.096.45c6.165 0 10.35-4.32 10.35-10.575 0-6.255-4.185-10.575-10.35-10.575-6.12 0-10.35 4.32-10.35 10.575 0 6.255 4.23 10.575 10.35 10.575zm0-5.85c-2.16 0-3.375-1.935-3.375-4.725 0-2.79 1.215-4.77 3.375-4.77 2.205 0 3.42 1.98 3.42 4.77 0 2.79-1.215 4.725-3.42 4.725zm20.17 5.4V55.76c.36-1.395 1.53-2.205 2.925-2.205 1.8 0 2.655 1.215 2.655 2.88V68h7.02V54.725c0-4.5-2.655-7.425-7.155-7.425-2.34 0-4.32.945-5.445 2.205V47.75h-7.065V68h7.065zM192.315 104V93.065h10.665V104h7.245V76.37h-7.245v10.485h-10.665V76.37h-7.245V104h7.245zm29.0935.45c2.295 0 4.32-.945 5.4-2.205V104h7.065V83.75h-7.065v12.285c-.36 1.395-1.575 2.25-2.88 2.25-1.8 0-2.61-1.215-2.61-2.925V83.75h-7.02v13.275c0 4.5 2.655 7.425 7.11 7.425zm28.315 0c5.85 0 9.045-4.725 9.045-10.575s-3.195-10.575-9.045-10.575c-2.07 0-4.05.99-4.995 2.07V74.75h-7.065V104h7.065v-1.62c.945 1.08 2.925 2.07 4.995 2.07zm-1.89-6.03c-1.395 0-2.565-.765-3.105-1.89v-5.355c.54-1.08 1.755-1.89 3.105-1.89 2.43 0 3.87 1.98 3.87 4.59s-1.44 4.545-3.87 4.545z" fill="#090" fill-rule="nonzero"/><path d="M55.0153 72.3702c.4594-1.8227 1.3237-4.126 2.197-6.184C58.5825 62.9565 60 59.6177 60 56.559c0-2.7401-1.1985-5.4902-3.2884-7.5452C54.8498 47.183 51.3998 45 45.5367 45c-1.1691 0-2.2263.0814-3.1703.2085.2827.95.4988 1.938.6553 2.9575a20.3175 20.3175 0 012.515-.1559c4.814 0 7.5583 1.7037 9.0112 3.1323 1.5195 1.4941 2.3918 3.4688 2.3918 5.4167 0 2.4561-1.2974 5.512-2.5524 8.4685-.8784 2.07-1.8214 4.5757-2.3413 6.616-1.2147 4.7683-3.1633 12.3482-7.9884 12.3482-1.883 0-3.9326-1.1754-5.9024-2.747-.9632.4845-2.0163.9292-3.1552 1.3164C37.7675 84.9985 40.8368 87 44.0576 87c7.22 0 9.615-9.2935 10.9577-14.6298M12.4328 52.8681c-1.2475-3.0927-2.3897-7.0457-2.3897-10.379 0-5.8705 1.4453-10.6878 3.9685-13.2171 1.4934-1.495 3.3251-2.2225 5.6004-2.2225 5.7801 0 16.6086 5.2941 21.1873 15.152.9625-.166 2.0294-.2838 3.2007-.3351C39.1383 30.108 26.5262 24 19.612 24 10.314 24 7 33.551 7 42.4892 7 46.744 8.4945 51.2392 9.6055 54c.8662-.3984 1.8096-.7727 2.8273-1.1319M32.6965 75.973c-1.7423.6177-3.7557 1.0265-6.1122 1.0265-7.0574 0-14.773-3.1222-19.656-7.956-2.4764-2.451-3.8967-5.0694-3.8967-7.1858 0-3.1114 1.2653-5.2753 3.5977-6.9642A46.4168 46.4168 0 015.5321 52C2.2915 54.1026 0 57.118 0 61.8577c0 2.948 1.6993 6.2543 4.786 9.3082C9.0998 75.4365 17.0924 80 26.5843 80c3.3527 0 6.1222-.7098 8.4157-1.7017-.8142-.792-1.5903-1.5888-2.3035-2.3253M129.7314 49c-3.7479 0-6.8807.6934-9.7314 1.8426V70h6.3376V54.616c.9102-.4112 2.0565-.6396 3.2388-.6396 3.4299 0 4.084 2.1167 4.084 6.0363l.003 9.9873H140V59.0604C140 52.937 137.9875 49 129.7314 49M69 70h6V42h-6zM82.3763 70H90l-7.9893-11.1561L89.34 50h-7.3243L75 59.0694zM94 50.7864V77h6.4603v-7.4852c1.3808.242 2.46.2992 3.674.2992 7.1231 0 10.8657-3.9252 10.8657-10.4951C115 52.6989 111.3188 49 103.6822 49c-3.4173 0-6.9921.7205-9.6822 1.7864m9.6342 2.9705c2.8291 0 4.7 1.6939 4.7 5.6073 0 3.7903-1.477 5.8612-4.965 5.8612-1.0023 0-2.2645-.1969-2.909-.436v-10.44c.9145-.4055 2.0253-.5925 3.174-.5925" fill="#090"/><path d="M28.8527 51.5188v-3.1915C28.1163 48.1091 27.2357 48 26.353 48 22.7644 48 21 50.5175 21 53.0636c0 2.4216.8581 4.73 4.0943 9.9364 1.3107-.1805 2.6224-.2947 3.9057-.3304-2.8189-5.4326-3.5061-7.3394-3.5061-8.7291 0-1.6162.8954-2.4421 2.7196-2.4421.2455 0 .4448.0051.6392.0204M18.9556 55.7283c-.284-.722-.492-1.8832-.5723-2.7243C15.3105 52.907 13 54.5802 13 56.9601c0 1.9094 1.019 3.6048 5.2566 7.0399 1.056-.3352 2.5153-.732 3.7434-.9875-4.1478-3.6956-4.7888-4.6781-4.7888-5.7828 0-.8108.5882-1.3399 1.7444-1.5014M32.1473 51.5188v-3.1915c.7383-.2182 1.617-.3273 2.5017-.3273C38.2356 48 40 50.5175 40 53.0636c0 2.4216-.8581 4.73-4.0943 9.9364-1.3107-.1805-2.6215-.2947-3.9057-.3304 2.8189-5.4326 3.5071-7.3394 3.5071-8.7291 0-1.6162-.8954-2.4421-2.7206-2.4421-.2455 0-.4448.0051-.6392.0204M42.044 55.7283c.284-.722.492-1.8832.5723-2.7243C45.6898 52.907 48 54.5802 48 56.9601c0 1.9094-1.0189 3.6048-5.257 7.0399-1.0559-.3352-2.515-.732-3.743-.9875 4.1473-3.6956 4.7893-4.6781 4.7893-5.7828 0-.8108-.5892-1.3399-1.7453-1.5014M30 68.6786c2.9057 0 5.8657.3882 8.9491 1.3214L40 66.4803C36.5422 65.4284 33.1723 65 30 65s-6.5422.4284-10 1.4803L21.0509 70c3.0834-.9332 6.0434-1.3214 8.9491-1.3214M30 46l-3-3 3-3 3 3z" fill="#090"/><path stroke="#090" d="M162.5 0v119"/></g></svg>
