<?xml version="1.0" encoding="UTF-8" standalone="no"?>
<svg
   xmlns:dc="http://purl.org/dc/elements/1.1/"
   xmlns:cc="http://creativecommons.org/ns#"
   xmlns:rdf="http://www.w3.org/1999/02/22-rdf-syntax-ns#"
   xmlns:svg="http://www.w3.org/2000/svg"
   xmlns="http://www.w3.org/2000/svg"
   viewBox="0 0 245.66667 113.38667"
   height="113.38667"
   width="245.66667"
   xml:space="preserve"
   id="svg2"
   version="1.1"><metadata
     id="metadata8"><rdf:RDF><cc:Work
         rdf:about=""><dc:format>image/svg+xml</dc:format><dc:type
           rdf:resource="http://purl.org/dc/dcmitype/StillImage" /></cc:Work></rdf:RDF></metadata><defs
     id="defs6" /><g
     transform="matrix(1.3333333,0,0,-1.3333333,0,113.38667)"
     id="g10"><g
       transform="scale(0.1)"
       id="g12"><path
         id="path14"
         style="fill:#231f20;fill-opacity:1;fill-rule:nonzero;stroke:none"
         d="m 786.652,264.285 c 4.649,18.781 13.407,42.512 22.254,63.703 13.879,33.274 28.235,67.68 28.235,99.196 0,28.222 -12.141,56.55 -33.313,77.722 -18.855,18.864 -53.808,41.344 -113.191,41.344 -11.856,0 -22.559,-0.824 -32.121,-2.148 2.863,-9.782 5.058,-19.957 6.64,-30.461 7.637,0.964 16.055,1.609 25.481,1.609 48.769,0 76.551,-17.547 91.269,-32.262 15.399,-15.398 24.239,-35.742 24.239,-55.804 0,-25.309 -13.145,-56.801 -25.852,-87.258 -8.895,-21.317 -18.457,-47.129 -23.719,-68.149 -12.304,-49.125 -32.043,-127.211 -80.929,-127.211 -19.071,0 -39.832,12.098 -59.793,28.289 -9.747,-4.984 -20.422,-9.57 -31.965,-13.554 28.047,-25.113 59.133,-45.738 91.758,-45.738 73.144,0 97.402,95.75 111.007,150.722" /><path
         id="path16"
         style="fill:#231f20;fill-opacity:1;fill-rule:nonzero;stroke:none"
         d="m 357.023,468.484 c -12.714,31.442 -24.355,71.633 -24.355,105.516 0,59.676 14.734,108.652 40.449,134.359 15.203,15.204 33.875,22.594 57.071,22.594 58.894,0 169.238,-53.82 215.906,-154.035 9.804,1.695 20.676,2.891 32.609,3.41 C 629.172,699.863 500.637,761.953 430.188,761.953 335.43,761.953 301.66,664.863 301.66,574 c 0,-43.258 15.227,-88.957 26.555,-117.02 8.816,4.051 18.426,7.86 28.808,11.504" /><path
         id="path18"
         style="fill:#231f20;fill-opacity:1;fill-rule:nonzero;stroke:none"
         d="m 564.602,221.918 c -17.813,-6.387 -38.399,-10.605 -62.493,-10.605 -72.175,0 -151.074,32.261 -201.004,82.195 -25.324,25.324 -39.843,52.387 -39.843,74.246 0,32.148 12.937,54.508 36.785,71.965 -3.477,8.383 -7.371,18.511 -11.219,29.89 -33.137,-21.726 -56.574,-52.882 -56.574,-101.855 0,-30.457 17.383,-64.613 48.937,-96.168 44.122,-44.125 125.86,-91.273 222.918,-91.273 34.278,0 62.598,7.339 86.047,17.582 -8.32,8.179 -16.25,16.418 -23.554,24.023" /><path
         id="path20"
         style="fill:#231f20;fill-opacity:1;fill-rule:nonzero;stroke:none"
         d="m 1557.1,503.711 c -38.32,0 -70.36,-6.988 -99.5,-18.566 V 292.133 h 64.8 v 154.992 c 9.3,4.148 21.03,6.445 33.12,6.445 35.07,0 41.76,-21.324 41.76,-60.804 l 0.03,-100.633 h 64.78 v 110.219 c 0,61.691 -20.56,101.359 -104.99,101.359" /><path
         id="path22"
         style="fill:#231f20;fill-opacity:1;fill-rule:nonzero;stroke:none"
         d="m 935.441,292.133 h 64.5703 V 575.602 H 935.441 Z" /><path
         id="path24"
         style="fill:#231f20;fill-opacity:1;fill-rule:nonzero;stroke:none"
         d="m 1074.24,292.133 h 76.58 l -80.25,113.847 73.6,90.247 h -73.54 l -70.47,-92.547 74.08,-111.547" /><path
         id="path26"
         style="fill:#231f20;fill-opacity:1;fill-rule:nonzero;stroke:none"
         d="M 1192.11,485.145 V 212.758 h 64.6 v 77.777 c 13.8,-2.508 24.6,-3.109 36.73,-3.109 71.23,0 108.66,40.789 108.66,109.054 0,68.797 -36.81,107.231 -113.17,107.231 -34.18,0 -69.92,-7.484 -96.82,-18.566 z m 96.33,-30.864 c 28.29,0 47,-17.601 47,-58.273 0,-39.391 -14.77,-60.895 -49.64,-60.895 -10.02,0 -22.65,2.039 -29.09,4.532 v 108.492 c 9.14,4.203 20.26,6.144 31.73,6.144" /><path
         id="path28"
         style="fill:#231f20;fill-opacity:1;fill-rule:nonzero;stroke:none"
         d="m 524.844,479.055 v 32.015 c -7.676,2.188 -16.836,3.282 -26.043,3.282 -37.375,0 -55.762,-25.254 -55.762,-50.789 0,-24.297 8.945,-47.45 42.656,-99.68 13.66,1.808 27.313,2.957 40.684,3.32 -29.367,54.492 -36.524,73.613 -36.524,87.559 0,16.218 9.336,24.492 28.34,24.492 2.559,0 4.629,-0.051 6.649,-0.199" /><path
         id="path30"
         style="fill:#231f20;fill-opacity:1;fill-rule:nonzero;stroke:none"
         d="m 422.988,431.801 c -2.742,7.316 -4.765,19.066 -5.547,27.594 -29.753,0.988 -52.136,-15.957 -52.136,-40.071 0,-19.34 9.871,-36.511 50.918,-71.308 10.234,3.394 24.363,7.414 36.25,10 -40.176,37.433 -46.387,47.394 -46.387,58.582 0,8.211 5.711,13.57 16.902,15.203" /><path
         id="path32"
         style="fill:#231f20;fill-opacity:1;fill-rule:nonzero;stroke:none"
         d="m 552.324,479.055 v 32.015 c 7.688,2.188 16.848,3.282 26.055,3.282 37.363,0 55.754,-25.254 55.754,-50.789 0,-24.297 -8.945,-47.45 -42.656,-99.68 -13.664,1.808 -27.305,2.957 -40.684,3.32 29.363,54.492 36.531,73.613 36.531,87.559 0,16.218 -9.336,24.492 -28.347,24.492 -2.559,0 -4.629,-0.051 -6.653,-0.199" /><path
         id="path34"
         style="fill:#231f20;fill-opacity:1;fill-rule:nonzero;stroke:none"
         d="m 654.18,431.801 c 2.746,7.316 4.765,19.066 5.547,27.594 29.765,0.988 52.148,-15.957 52.148,-40.071 0,-19.34 -9.871,-36.511 -50.926,-71.308 -10.226,3.394 -24.367,7.414 -36.25,10 40.176,37.433 46.395,47.394 46.395,58.582 0,8.211 -5.723,13.57 -16.914,15.203" /><path
         id="path36"
         style="fill:#231f20;fill-opacity:1;fill-rule:nonzero;stroke:none"
         d="m 538.586,299.07 c 30.086,0 60.75,-3.937 92.664,-13.441 l 10.898,35.805 c -35.82,10.695 -70.71,15.054 -103.562,15.054 -32.852,0 -67.746,-4.359 -103.566,-15.054 l 10.898,-35.805 c 31.926,9.504 62.578,13.441 92.668,13.441" /><path
         id="path38"
         style="fill:#231f20;fill-opacity:1;fill-rule:nonzero;stroke:none"
         d="m 538.586,531.941 -33.164,33.172 33.164,33.164 33.164,-33.164 -33.164,-33.172" /></g></g></svg>