<svg xmlns="http://www.w3.org/2000/svg" width="347" height="371" viewBox="0 0 347 371">
  <path d="M263.56735,122.647564 C297.334437,122.647564 317.287715,135.56901 328.031788,146.388262 C339.940851,158.149211 346.758527,174.168432 347.002752,190.963578 C347.002752,209.078096 338.837256,228.800046 330.917339,247.903752 C325.847941,259.766291 321.62154,271.976391 318.270031,284.44191 L318.270031,284.44191 L317.963057,284.380086 C309.981746,316.034124 296.352121,370.934097 254.726512,370.934097 C236.123917,370.934097 218.380848,359.125657 202.418225,344.720597 C208.726435,342.548692 214.880187,339.946031 220.836636,336.930736 C232.194656,346.20438 244.043834,353.190525 254.910696,353.190525 C282.599708,353.190525 293.957728,308.367912 301.018119,280.176034 C304.584702,266.84259 309.098617,253.784611 314.524954,241.10308 C321.769529,223.606805 329.259682,205.554111 329.259682,191.025402 C329.013857,178.937047 324.051325,167.432254 315.445874,159.000418 C307.0348,150.530489 291.194966,140.453129 263.44456,140.453129 C258.579745,140.450836 253.719724,140.760585 248.894015,141.380494 C248.037071,135.470362 246.785881,129.625047 245.148938,123.884219 C251.253377,123.051112 257.407111,122.637993 263.56735,122.647564 Z M32.4807633,166.52149 C34.3973864,172.996783 36.6849688,178.793712 38.6634185,183.60393 C24.9714402,192.779378 16.9995736,208.35614 17.5805643,224.799127 C17.5805643,237.318027 25.8653222,252.79706 40.3945619,267.289383 C71.5476439,296.844566 112.712238,313.620823 155.701081,314.281509 C167.922765,314.321084 180.057723,312.234166 191.560481,308.114563 L191.560481,308.114563 L191.869614,308.237902 C196.073819,312.616434 200.648984,317.303312 205.409629,321.990191 C189.806617,328.747506 172.958131,332.171662 155.948387,332.042313 C108.203657,331.566096 62.4533438,312.875548 28.0910781,279.808283 C9.97589844,261.800801 0.0218236002,242.189914 0.0218236002,224.799127 C-0.595055136,200.929355 11.8364507,178.609501 32.4807633,166.52149 Z M117.661778,250.881314 C156.70052,239.444529 198.279195,239.444529 237.317938,250.881314 L237.317938,250.881314 L231.092331,271.22063 C213.720194,266.114103 195.682728,263.534199 177.552114,263.562755 L177.552114,263.562755 L177.427602,263.562755 C159.296988,263.534199 141.259521,266.114103 123.887384,271.22063 L123.887384,271.22063 Z M76.7792561,195.478003 C76.7792561,181.658044 89.5977983,171.971734 106.607018,172.527 C107.04663,177.89493 108.101223,183.194469 109.750026,188.321238 C103.340754,189.308378 100.074491,192.331494 100.074491,197.082105 C100.074491,203.436818 103.648893,209.174569 126.63599,230.583166 C119.619452,232.13794 112.687456,234.053055 105.867486,236.320917 C82.4489959,216.39303 76.7792561,206.583327 76.7792561,195.478003 Z M275.209056,195.478003 C275.209056,206.583327 269.539316,216.39303 246.059198,236.320917 C239.257633,234.061099 232.346565,232.146084 225.352322,230.583166 C248.339419,209.174569 251.852193,203.436818 251.852193,197.082105 C251.852193,192.331494 248.58593,189.308378 242.176659,188.321238 C243.875773,183.204756 244.951767,177.901654 245.381294,172.527 C262.390513,171.971734 275.209056,181.658044 275.209056,195.478003 Z M152.520478,141.593992 C157.525472,141.566017 162.511717,142.21342 167.346768,143.519007 L167.346768,143.519007 L167.345887,161.837 L163.840135,161.837693 C153.08723,161.837693 147.79355,166.500391 147.662888,175.586596 L147.660408,175.933767 C147.660408,184.006409 151.720719,194.997621 168.515646,226.418825 C160.73537,226.635785 152.972471,227.2784 145.261132,228.34384 C125.759331,198.226677 120.653182,185.620937 120.653182,170.903891 C120.653182,156.186844 131.173081,141.593992 152.520478,141.593992 Z M199.323624,141.593123 C220.809103,141.593123 231.33513,156.186653 231.33513,170.903739 C231.33513,185.620824 226.195952,198.226597 206.877597,228.34384 C199.116379,227.278397 191.303267,226.635781 183.472666,226.41882 C200.376227,194.997532 204.462802,184.006291 204.462802,175.933628 C204.462802,166.619017 199.137871,161.837517 188.178419,161.837517 L184.339515,161.837517 L184.339515,143.518782 C189.227701,142.217132 194.266125,141.569842 199.323624,141.593123 Z M113.977594,0 C154.048216,0 227.082133,35.5163162 255.266362,103.897557 C249.103933,104.161732 242.96449,104.820776 236.885343,105.870686 C210.539215,48.5882937 147.79867,17.7581581 114.345215,17.7581581 C102.212961,17.3334723 90.450869,22.0012707 81.8720809,30.6451548 C67.2898056,45.3819596 58.8958068,73.3757227 58.8958068,107.535513 C59.8941411,128.327792 64.5838198,148.772196 72.7428413,167.900918 L72.7428413,167.900918 L72.3752209,167.900918 C66.4932948,169.997368 61.0402591,172.155477 56.0161138,174.498567 C47.0037116,153.277486 41.8767367,130.59184 40.882408,107.535513 C40.882408,55.494244 60.1212081,0 113.977594,0 Z M176.276099,93.3670122 L195.232847,112.343341 L176.276099,131.319669 L157.319351,112.343341 L176.276099,93.3670122 Z"/>
</svg>
